<?xml version="1.0" encoding="UTF-8"?>
<!-- Generator: Adobe Illustrator 17.0.0, SVG Export Plug-In . SVG Version: 6.00 Build 0)  -->
<!DOCTYPE svg PUBLIC "-//W3C//DTD SVG 1.1//EN" "http://www.w3.org/Graphics/SVG/1.1/DTD/svg11.dtd">
<svg version="1.1" id="Capa_1" xmlns="http://www.w3.org/2000/svg" xmlns:xlink="http://www.w3.org/1999/xlink" x="0px" y="0px" width="370px" height="62px" viewBox="0 0 370 62" enable-background="new 0 0 370 62" xml:space="preserve">
<path d="M16.205,18.02c-0.662-0.844-0.267-1.995,0.456-3.173c0.665-1.098,3.805-6.014,10.643-9.12  C36.03,1.76,45.605,1.91,54.687,8.91c1.667,1.285,2.798,3.026,3.12,4.322c0.28,1.135,0.014,5.326-0.225,5.752  c-0.238,0.42-2.26-4.894-12.023-9.127c-7.255-3.147-17.49-0.698-24.096,4.105c-4.12,2.994-4.816,4.632-5.26,4.056 M15.104,41.024  c-1.015,0.36-1.98-0.372-2.878-1.424c-0.834-0.976-4.518-5.496-5.332-12.962C5.852,17.108,8.996,8.058,18.48,1.624  c1.745-1.184,3.75-1.708,5.085-1.614c1.168,0.09,5.065,1.654,5.388,2.012c0.333,0.36-5.344,0.612-12.423,8.57  c-5.257,5.903-6.13,16.39-3.634,24.168C14.456,39.613,15.789,40.78,15.104,41.024 M36.615,49.35c0.023,1.07-0.982,1.752-2.27,2.266  c-1.18,0.48-6.647,2.53-13.983,0.912c-9.36-2.06-16.93-7.925-19.996-18.973c-0.566-2.027-0.427-4.095,0.093-5.33  c0.453-1.076,3.186-4.266,3.625-4.463c0.447-0.2-1.128,5.267,4.147,14.51c3.92,6.87,13.58,11.05,21.745,11.17  C35.07,49.518,36.606,48.624,36.615,49.35 M51.057,31.04c1.04,0.297,1.398,1.454,1.515,2.83c0.117,1.276,0.487,7.1-3.19,13.653  c-4.683,8.357-12.494,13.9-23.96,13.628c-2.1-0.046-4.042-0.784-5.074-1.64c-0.898-0.748-3.165-4.288-3.218-4.769  c-0.062-0.482,4.714,2.604,15.088,0.248c7.712-1.752,14.52-9.785,17.002-17.566C50.772,32.57,50.364,30.842,51.057,31.04   M38.35,11.15c0.594-0.895,1.806-0.883,3.157-0.58c1.247,0.282,6.91,1.7,12.022,7.2c6.535,7.014,9.43,16.14,5.68,26.972  c-0.69,1.993-1.98,3.614-3.11,4.332c-0.99,0.63-5.047,1.708-5.526,1.618c-0.47-0.094,3.92-3.695,4.837-14.3  c0.68-7.88-4.892-16.808-11.543-21.545C39.719,11.889,37.947,11.751,38.35,11.15 M38.432,30.58c0-3.25-2.637-5.886-5.887-5.886  s-5.887,2.635-5.887,5.887c0,3.25,2.637,5.887,5.887,5.887s5.887-2.638,5.887-5.886 M82.5,23.527c-0.206,0.21-0.49,0.372-0.85,0.48  c-0.36,0.11-0.79,0.183-1.29,0.217c-0.497,0.034-1.03,0.05-1.596,0.05H77.09c-0.448,0-0.856,0.022-1.225,0.064  c-0.37,0.042-0.687,0.143-0.953,0.304c-0.267,0.16-0.473,0.397-0.618,0.71c-0.147,0.312-0.22,0.746-0.22,1.304  c0,0.473,0.082,0.844,0.245,1.114c0.162,0.27,0.38,0.478,0.656,0.62c0.275,0.145,0.588,0.233,0.94,0.267  c0.353,0.034,0.71,0.05,1.07,0.05h1.932c1.03,0,1.847,0.094,2.448,0.28c0.6,0.185,0.902,0.632,0.902,1.342  c0,0.354-0.09,0.632-0.27,0.835s-0.426,0.355-0.735,0.456c-0.31,0.102-0.666,0.166-1.07,0.19c-0.403,0.026-0.828,0.04-1.275,0.04  H76.78c-0.43,0-0.812,0.02-1.147,0.062c-0.335,0.042-0.622,0.157-0.863,0.342c-0.24,0.186-0.425,0.46-0.554,0.823  c-0.13,0.364-0.193,0.858-0.193,1.483c0,0.49,0.073,0.89,0.22,1.203c0.145,0.312,0.347,0.553,0.605,0.722  c0.257,0.17,0.553,0.283,0.888,0.342c0.335,0.06,0.692,0.09,1.07,0.09h2.91c0.534,0,1.02,0.02,1.457,0.062  c0.438,0.04,0.812,0.125,1.12,0.252c0.31,0.127,0.55,0.3,0.722,0.52s0.258,0.506,0.258,0.86c0,0.61-0.322,1.006-0.966,1.19  c-0.644,0.187-1.568,0.28-2.77,0.28h-5.205c-0.824,0-1.486-0.038-1.984-0.114s-0.91-0.274-1.237-0.595  c-0.29-0.287-0.488-0.65-0.59-1.09c-0.104-0.44-0.156-1.02-0.156-1.747V25.11c0-0.793,0.043-1.47,0.13-2.026  c0.085-0.558,0.3-1.005,0.643-1.343c0.292-0.27,0.653-0.446,1.082-0.53c0.43-0.085,0.97-0.128,1.623-0.128h5.977  c1.03,0,1.787,0.12,2.268,0.355c0.48,0.237,0.72,0.65,0.72,1.24C82.808,23.034,82.706,23.318,82.5,23.527 M97.238,37.017  c0,0.355-0.022,0.718-0.064,1.09c-0.043,0.37-0.13,0.7-0.258,0.987c-0.13,0.288-0.305,0.524-0.528,0.71  c-0.224,0.186-0.507,0.278-0.85,0.278c-0.533,0-0.94-0.206-1.224-0.62c-0.284-0.414-0.426-1.018-0.426-1.812v-3.116  c0-1.08-0.107-1.942-0.32-2.584c-0.217-0.64-0.504-1.13-0.865-1.47c-0.36-0.337-0.77-0.56-1.223-0.67  c-0.456-0.11-0.924-0.165-1.405-0.165c-0.43,0-0.816,0.097-1.16,0.292c-0.343,0.194-0.63,0.46-0.863,0.797  c-0.23,0.338-0.412,0.735-0.54,1.19c-0.13,0.457-0.194,0.947-0.194,1.47v3.927c0,0.846-0.137,1.517-0.412,2.015  s-0.74,0.747-1.39,0.747c-0.43,0-0.81-0.215-1.135-0.646c-0.326-0.43-0.49-1-0.49-1.71v-7.498c0-0.827,0.147-1.533,0.44-2.115  c0.29-0.583,0.737-0.875,1.34-0.875c0.463,0,0.802,0.022,1.017,0.064c0.214,0.042,0.408,0.097,0.58,0.164h-0.026  c0.138,0.068,0.362,0.102,0.67,0.102c0.327,0,0.59-0.038,0.787-0.114c0.197-0.076,0.39-0.156,0.58-0.24  c0.274-0.136,0.613-0.267,1.017-0.393c0.403-0.126,1.01-0.19,1.817-0.19c0.67,0,1.315,0.093,1.933,0.28  c0.62,0.185,1.164,0.498,1.636,0.936c0.472,0.44,0.85,1.04,1.133,1.8c0.283,0.76,0.425,1.705,0.425,2.836v4.535L97.238,37.017z   M101.837,34.737c0.197,0.473,0.472,0.89,0.825,1.254c0.35,0.364,0.772,0.65,1.262,0.862c0.49,0.212,1.026,0.317,1.61,0.317  c0.5,0,0.958-0.12,1.38-0.356c0.42-0.236,0.785-0.54,1.094-0.912c0.31-0.37,0.554-0.79,0.734-1.254s0.27-0.916,0.27-1.355  c0-0.422-0.077-0.86-0.23-1.317c-0.156-0.456-0.375-0.87-0.658-1.242c-0.284-0.37-0.627-0.675-1.03-0.912  c-0.405-0.236-0.855-0.354-1.354-0.354c-0.566,0-1.103,0.084-1.61,0.253c-0.507,0.17-0.953,0.415-1.34,0.736  c-0.386,0.32-0.69,0.718-0.914,1.19c-0.224,0.473-0.335,1.014-0.335,1.622c0,0.506,0.1,0.996,0.297,1.47 M108.833,27.353  c0.12-0.025,0.232-0.054,0.336-0.088h-0.026l0.412-0.114c0.155-0.042,0.412-0.064,0.773-0.064c0.48,0,0.86,0.102,1.134,0.304  c0.275,0.203,0.48,0.448,0.62,0.735c0.136,0.288,0.227,0.59,0.27,0.912c0.042,0.32,0.064,0.6,0.064,0.836v8.486  c0,1.216-0.15,2.322-0.45,3.318c-0.302,0.997-0.76,1.85-1.38,2.56c-0.618,0.708-1.4,1.257-2.344,1.646  c-0.945,0.388-2.06,0.582-3.35,0.582c-0.67,0-1.336-0.05-1.997-0.152c-0.66-0.1-1.254-0.253-1.777-0.456  c-0.525-0.202-0.95-0.456-1.276-0.76c-0.326-0.304-0.49-0.658-0.49-1.064c0-0.59,0.13-0.97,0.387-1.14  c0.258-0.17,0.678-0.253,1.263-0.253c0.24,0,0.467,0.035,0.682,0.102c0.215,0.068,0.442,0.143,0.683,0.228  c0.275,0.1,0.6,0.203,0.98,0.304c0.377,0.102,0.892,0.152,1.545,0.152c0.464,0,0.915-0.063,1.353-0.19  c0.438-0.126,0.83-0.304,1.172-0.532c0.344-0.228,0.62-0.51,0.825-0.848c0.206-0.34,0.31-0.727,0.31-1.166  c0-0.287-0.1-0.54-0.297-0.76c-0.198-0.22-0.468-0.33-0.812-0.33c-0.137,0-0.265,0.018-0.385,0.052s-0.25,0.067-0.387,0.1h0.026  c-0.24,0.086-0.537,0.166-0.89,0.242c-0.35,0.076-0.854,0.113-1.506,0.113c-0.585,0-1.108-0.063-1.572-0.19  c-0.464-0.126-0.876-0.286-1.237-0.48c-0.36-0.195-0.67-0.397-0.928-0.61c-0.258-0.21-0.473-0.4-0.645-0.57  c-0.154-0.15-0.34-0.37-0.554-0.657c-0.215-0.287-0.42-0.646-0.618-1.077c-0.198-0.43-0.37-0.92-0.515-1.47  c-0.146-0.548-0.22-1.152-0.22-1.81c0-0.642,0.112-1.356,0.336-2.14c0.223-0.787,0.588-1.52,1.095-2.205  c0.507-0.684,1.164-1.254,1.972-1.71c0.807-0.456,1.803-0.684,2.99-0.684c0.617,0,1.107,0.06,1.467,0.177  c0.36,0.12,0.686,0.246,0.978,0.38c0.19,0.086,0.383,0.162,0.58,0.23c0.198,0.067,0.442,0.1,0.735,0.1  c0.326,0,0.55-0.012,0.67-0.038 M114.823,23.844c-0.25-0.304-0.374-0.65-0.374-1.04c0-0.387,0.132-0.737,0.4-1.05  c0.265-0.312,0.656-0.47,1.17-0.47c0.516,0,0.91,0.162,1.186,0.483c0.275,0.32,0.413,0.667,0.413,1.038  c0,0.39-0.156,0.735-0.465,1.04c-0.31,0.303-0.687,0.455-1.134,0.455C115.469,24.3,115.071,24.148,114.823,23.844L114.823,23.844z   M117.748,37.498c0,0.238-0.026,0.5-0.078,0.786c-0.05,0.287-0.142,0.566-0.27,0.836c-0.13,0.27-0.306,0.494-0.53,0.67  c-0.222,0.178-0.506,0.267-0.85,0.267c-0.36,0-0.647-0.093-0.862-0.28c-0.215-0.184-0.378-0.408-0.49-0.67  c-0.11-0.262-0.19-0.54-0.23-0.836c-0.045-0.294-0.066-0.552-0.066-0.772v-7.802c0-0.253,0.02-0.545,0.065-0.874  c0.042-0.33,0.12-0.642,0.23-0.937c0.113-0.295,0.276-0.545,0.49-0.748c0.216-0.202,0.504-0.304,0.864-0.304  c0.362,0,0.654,0.102,0.877,0.304c0.223,0.203,0.4,0.453,0.528,0.748c0.13,0.295,0.215,0.608,0.258,0.937  c0.043,0.33,0.065,0.62,0.065,0.874v7.802L117.748,37.498z M133.155,37.017c0,0.355-0.022,0.718-0.064,1.09  c-0.042,0.37-0.127,0.7-0.257,0.987c-0.13,0.288-0.304,0.524-0.528,0.71s-0.507,0.278-0.85,0.278c-0.532,0-0.94-0.206-1.224-0.62  c-0.282-0.414-0.424-1.018-0.424-1.812v-3.116c0-1.08-0.108-1.942-0.323-2.584c-0.215-0.64-0.5-1.13-0.863-1.47  c-0.36-0.337-0.77-0.56-1.224-0.67s-0.922-0.165-1.403-0.165c-0.43,0-0.816,0.097-1.16,0.292c-0.343,0.194-0.632,0.46-0.864,0.797  c-0.233,0.338-0.412,0.735-0.54,1.19c-0.13,0.457-0.195,0.947-0.195,1.47v3.927c0,0.846-0.138,1.517-0.412,2.015  s-0.738,0.747-1.39,0.747c-0.43,0-0.81-0.215-1.135-0.646c-0.326-0.43-0.49-1-0.49-1.71v-7.498c0-0.827,0.146-1.533,0.438-2.115  c0.293-0.583,0.74-0.875,1.34-0.875c0.465,0,0.803,0.022,1.02,0.064c0.213,0.042,0.407,0.097,0.578,0.164h-0.025  c0.136,0.068,0.36,0.102,0.67,0.102c0.325,0,0.587-0.038,0.784-0.114s0.39-0.156,0.58-0.24c0.275-0.136,0.614-0.267,1.017-0.393  c0.405-0.126,1.01-0.19,1.818-0.19c0.67,0,1.315,0.093,1.933,0.28c0.618,0.185,1.163,0.498,1.636,0.936  c0.472,0.44,0.85,1.04,1.135,1.8c0.284,0.76,0.425,1.705,0.425,2.836v4.535L133.155,37.017z M136.118,27.213  c0.258,0.17,0.49,0.384,0.696,0.646s0.39,0.565,0.554,0.91c0.163,0.347,0.313,0.698,0.45,1.052v-0.025l0.902,2.23  c0.19,0.472,0.408,0.9,0.657,1.28c0.25,0.38,0.52,0.57,0.812,0.57c0.325,0,0.6-0.187,0.824-0.56c0.222-0.37,0.43-0.826,0.618-1.367  l0.773-2.153v0.025c0.103-0.286,0.214-0.586,0.335-0.9c0.12-0.31,0.27-0.603,0.45-0.873s0.404-0.49,0.67-0.66  c0.267-0.168,0.58-0.253,0.94-0.253c0.465,0,0.8,0.144,1.006,0.43c0.206,0.288,0.31,0.592,0.31,0.913  c0,0.422-0.233,1.224-0.697,2.406l-3.89,9.982c-0.362,0.945-0.72,1.76-1.07,2.444c-0.353,0.684-0.74,1.25-1.16,1.698  c-0.42,0.447-0.902,0.78-1.443,1c-0.54,0.22-1.18,0.33-1.92,0.33c-0.653,0-1.15-0.157-1.494-0.47c-0.344-0.312-0.515-0.645-0.515-1  c0-0.44,0.15-0.756,0.45-0.95s0.666-0.384,1.096-0.57c0.257-0.1,0.524-0.22,0.8-0.354c0.273-0.136,0.505-0.296,0.694-0.482h-0.026  c0.086-0.1,0.194-0.224,0.323-0.367c0.128-0.144,0.253-0.317,0.373-0.52c0.12-0.202,0.223-0.426,0.31-0.67  c0.085-0.246,0.128-0.512,0.128-0.8c0-0.353-0.04-0.72-0.116-1.1c-0.077-0.38-0.22-0.8-0.425-1.254l-2.654-6.207  c-0.034-0.102-0.076-0.207-0.128-0.317c-0.05-0.11-0.094-0.216-0.128-0.317l0.025,0.025c-0.207-0.49-0.392-0.938-0.555-1.343  s-0.244-0.776-0.244-1.115c0-0.388,0.1-0.747,0.297-1.076c0.197-0.33,0.545-0.494,1.043-0.494c0.36,0,0.67,0.085,0.928,0.253   M150.87,31.62c0.18,0.187,0.402,0.335,0.67,0.444c0.265,0.11,0.557,0.186,0.875,0.228c0.318,0.043,0.606,0.064,0.863,0.064  c0.687,0,1.276-0.11,1.765-0.33c0.49-0.22,0.735-0.583,0.735-1.09c0-0.32-0.082-0.607-0.245-0.86  c-0.164-0.254-0.383-0.47-0.657-0.646c-0.275-0.177-0.58-0.313-0.915-0.406c-0.334-0.092-0.665-0.14-0.99-0.14  c-0.31,0-0.61,0.056-0.903,0.166c-0.292,0.11-0.545,0.257-0.76,0.443s-0.386,0.4-0.515,0.646c-0.13,0.244-0.193,0.493-0.193,0.746  C150.6,31.189,150.69,31.435,150.87,31.62 M159.01,33.977c-0.47,0.405-1.145,0.608-2.02,0.608c-0.242,0-0.457-0.008-0.645-0.025  c-0.19-0.017-0.396-0.042-0.62-0.076c-0.325-0.034-0.7-0.076-1.12-0.127c-0.42-0.05-0.906-0.076-1.455-0.076  c-0.258,0-0.533,0.022-0.825,0.064c-0.292,0.043-0.563,0.12-0.812,0.228c-0.25,0.11-0.455,0.258-0.618,0.444  c-0.164,0.185-0.245,0.422-0.245,0.71c0,0.303,0.086,0.573,0.258,0.81c0.17,0.236,0.395,0.434,0.67,0.595  c0.274,0.162,0.567,0.284,0.876,0.368c0.31,0.085,0.61,0.127,0.902,0.127c0.343,0,0.644-0.042,0.9-0.127  c0.26-0.084,0.508-0.168,0.75-0.253c0.256-0.1,0.514-0.194,0.772-0.28c0.257-0.083,0.523-0.125,0.798-0.125  c0.447,0,0.76,0.11,0.94,0.33c0.18,0.22,0.27,0.54,0.27,0.962c0,0.152-0.076,0.342-0.23,0.57c-0.155,0.228-0.405,0.452-0.748,0.67  c-0.344,0.22-0.79,0.406-1.34,0.558s-1.21,0.228-1.984,0.228h-0.05c-0.895,0-1.762-0.168-2.604-0.506  c-0.84-0.338-1.584-0.8-2.228-1.38c-0.644-0.584-1.164-1.263-1.56-2.04c-0.395-0.777-0.592-1.605-0.592-2.483v-0.052  c0-1.114,0.18-2.106,0.54-2.976c0.362-0.87,0.873-1.596,1.534-2.18c0.66-0.582,1.447-1.025,2.358-1.33  c0.91-0.303,1.924-0.455,3.04-0.455c0.773,0,1.508,0.135,2.203,0.405c0.696,0.27,1.31,0.655,1.843,1.153  c0.532,0.498,0.957,1.09,1.275,1.773c0.318,0.684,0.477,1.44,0.477,2.268C159.72,33.032,159.483,33.573,159.01,33.977   M168.764,27.264c0.292,0.253,0.438,0.566,0.438,0.937c0,0.34-0.056,0.605-0.168,0.8c-0.11,0.194-0.262,0.346-0.45,0.455  c-0.19,0.11-0.41,0.2-0.658,0.266c-0.25,0.07-0.51,0.128-0.785,0.178c-0.498,0.102-0.888,0.224-1.172,0.368  c-0.283,0.144-0.58,0.367-0.89,0.67c-0.12,0.12-0.24,0.263-0.36,0.432c-0.12,0.17-0.227,0.38-0.32,0.633  c-0.096,0.254-0.173,0.563-0.233,0.926s-0.09,0.79-0.09,1.28v3.115c0,0.356-0.035,0.698-0.104,1.027  c-0.067,0.33-0.17,0.62-0.308,0.874c-0.137,0.254-0.313,0.457-0.528,0.61c-0.215,0.15-0.468,0.227-0.76,0.227  c-0.31,0-0.57-0.076-0.786-0.228c-0.215-0.153-0.395-0.35-0.54-0.596c-0.147-0.245-0.255-0.51-0.323-0.798  c-0.07-0.287-0.103-0.574-0.103-0.862V30c0-0.27,0.017-0.57,0.05-0.9c0.036-0.33,0.126-0.633,0.272-0.912  c0.146-0.278,0.36-0.51,0.644-0.696c0.283-0.186,0.674-0.28,1.172-0.28c0.223,0,0.426,0.023,0.606,0.064  c0.18,0.043,0.365,0.08,0.554,0.115c0.137,0.035,0.266,0.064,0.386,0.09c0.12,0.025,0.275,0.037,0.464,0.037  c0.292,0,0.528-0.03,0.71-0.09c0.18-0.057,0.355-0.13,0.527-0.214c0.19-0.084,0.395-0.16,0.618-0.228  c0.223-0.067,0.498-0.1,0.825-0.1c0.584,0,1.022,0.126,1.314,0.38 M170.89,23.844c-0.25-0.304-0.375-0.65-0.375-1.04  c0-0.387,0.133-0.737,0.4-1.05c0.266-0.312,0.657-0.47,1.172-0.47s0.91,0.162,1.185,0.483c0.275,0.32,0.413,0.667,0.413,1.038  c0,0.39-0.155,0.735-0.464,1.04c-0.308,0.303-0.686,0.455-1.133,0.455C171.538,24.3,171.138,24.148,170.89,23.844L170.89,23.844z   M173.814,37.498c0,0.238-0.026,0.5-0.078,0.786c-0.05,0.287-0.142,0.566-0.27,0.836c-0.13,0.27-0.306,0.494-0.528,0.67  c-0.224,0.178-0.507,0.267-0.85,0.267c-0.36,0-0.65-0.093-0.864-0.28c-0.215-0.184-0.378-0.408-0.49-0.67  c-0.11-0.262-0.19-0.54-0.23-0.836c-0.045-0.294-0.066-0.552-0.066-0.772v-7.802c0-0.253,0.02-0.545,0.065-0.874  c0.042-0.33,0.12-0.642,0.232-0.937c0.11-0.295,0.274-0.545,0.49-0.748c0.213-0.202,0.502-0.304,0.862-0.304  s0.653,0.102,0.876,0.304c0.223,0.203,0.4,0.453,0.528,0.748c0.13,0.295,0.216,0.608,0.26,0.937c0.042,0.33,0.064,0.62,0.064,0.874  L173.814,37.498L173.814,37.498z M181.97,38.069c0.076-0.01,0.26-0.04,0.553-0.09c0.258-0.287,0.52-0.646,0.786-1.077  c0.265-0.43,0.398-0.874,0.398-1.33c0-0.254-0.073-0.486-0.22-0.697c-0.145-0.21-0.32-0.383-0.527-0.52  c-0.205-0.134-0.424-0.24-0.656-0.316c-0.232-0.075-0.434-0.114-0.606-0.114c-0.137,0-0.356,0.042-0.657,0.127  c-0.3,0.085-0.6,0.22-0.9,0.406c-0.3,0.184-0.563,0.416-0.786,0.694c-0.224,0.28-0.335,0.62-0.335,1.026  c0,0.322,0.085,0.6,0.256,0.837c0.172,0.236,0.39,0.434,0.657,0.595c0.267,0.16,0.567,0.28,0.902,0.355  c0.335,0.075,0.657,0.114,0.966,0.114C181.837,38.079,181.893,38.077,181.97,38.069l0.001-0.002L181.97,38.069z M187.367,37.471  c0,0.575-0.155,1.094-0.464,1.56c-0.31,0.464-0.833,0.696-1.572,0.696h-0.024c-0.224,0-0.61-0.052-1.16-0.153  c-0.55-0.1-1.09-0.32-1.623-0.66c-0.653,0.44-1.262,0.76-1.83,0.965c-0.566,0.203-1.004,0.303-1.314,0.303  c-0.207,0-0.538-0.047-0.993-0.14c-0.455-0.09-0.914-0.277-1.378-0.556c-0.465-0.28-0.87-0.672-1.212-1.178  c-0.344-0.508-0.515-1.175-0.515-2.003c0-0.827,0.184-1.498,0.554-2.014c0.37-0.514,0.845-0.92,1.43-1.215  c0.583-0.296,1.22-0.498,1.906-0.61c0.687-0.108,1.357-0.164,2.01-0.164c0.258,0,0.528-0.032,0.812-0.1  c0.283-0.068,0.545-0.17,0.786-0.305c0.24-0.135,0.44-0.304,0.593-0.508c0.155-0.2,0.232-0.438,0.232-0.71  c0-0.285-0.09-0.538-0.27-0.758c-0.18-0.22-0.4-0.4-0.658-0.544c-0.257-0.145-0.528-0.255-0.81-0.33  c-0.285-0.076-0.53-0.114-0.735-0.114c-0.5,0-0.954,0.038-1.366,0.113s-0.773,0.156-1.082,0.24c-0.19,0.035-0.348,0.07-0.477,0.102  c-0.13,0.034-0.314,0.05-0.554,0.05c-0.154,0-0.34-0.063-0.554-0.19c-0.216-0.127-0.323-0.307-0.323-0.544  c0-0.084,0.13-0.232,0.387-0.443c0.257-0.212,0.622-0.43,1.095-0.66c0.47-0.227,1.042-0.425,1.712-0.595s1.417-0.253,2.242-0.253  c1.65,0,2.92,0.473,3.813,1.418c0.893,0.947,1.34,2.348,1.34,4.207v5.09L187.367,37.471z M204.746,23.59  c-0.3,0.305-0.674,0.457-1.12,0.457c-0.396,0-0.693-0.026-0.89-0.076c-0.197-0.05-0.374-0.11-0.528-0.176  c-0.07-0.018-0.138-0.038-0.206-0.064c-0.07-0.026-0.164-0.05-0.284-0.076c-0.12-0.026-0.275-0.043-0.463-0.052  c-0.19-0.008-0.422-0.012-0.696-0.012c-0.774,0-1.43,0.19-1.972,0.57c-0.54,0.38-0.812,0.95-0.812,1.71  c0,0.405,0.094,0.747,0.284,1.026c0.19,0.28,0.438,0.528,0.747,0.747c0.31,0.22,0.665,0.41,1.07,0.57  c0.402,0.162,0.828,0.326,1.275,0.494c0.635,0.238,1.27,0.5,1.906,0.787s1.21,0.646,1.727,1.076c0.515,0.43,0.936,0.962,1.262,1.596  c0.326,0.633,0.49,1.423,0.49,2.37c0,0.944-0.185,1.788-0.554,2.532c-0.37,0.744-0.876,1.367-1.52,1.875  c-0.645,0.507-1.396,0.895-2.255,1.165c-0.86,0.27-1.787,0.405-2.783,0.405c-0.55,0-1.125-0.055-1.726-0.164  c-0.603-0.11-1.152-0.276-1.65-0.495c-0.5-0.22-0.91-0.49-1.237-0.81c-0.326-0.323-0.49-0.694-0.49-1.117  c0-0.303,0.056-0.552,0.168-0.746c0.113-0.195,0.254-0.346,0.426-0.457c0.172-0.11,0.348-0.19,0.528-0.24  c0.18-0.05,0.34-0.077,0.477-0.077c0.344,0,0.628,0.044,0.85,0.127l0.723,0.28c0.24,0.117,0.506,0.224,0.8,0.316  c0.29,0.093,0.66,0.14,1.106,0.14h0.128c0.893,0,1.624-0.224,2.19-0.67c0.567-0.45,0.85-1.02,0.85-1.712  c0-0.454-0.098-0.843-0.296-1.164c-0.197-0.32-0.463-0.603-0.798-0.848s-0.718-0.457-1.147-0.634c-0.43-0.177-0.876-0.35-1.34-0.52  c-0.618-0.236-1.237-0.485-1.855-0.747s-1.172-0.596-1.662-1c-0.49-0.407-0.885-0.913-1.185-1.52c-0.3-0.608-0.45-1.368-0.45-2.28  c0-1.166,0.257-2.125,0.772-2.876c0.515-0.753,1.137-1.348,1.868-1.787c0.73-0.44,1.494-0.743,2.293-0.912  c0.8-0.168,1.482-0.253,2.05-0.253c0.617,0,1.192,0.047,1.725,0.14c0.532,0.094,0.996,0.233,1.39,0.42  c0.396,0.184,0.705,0.413,0.93,0.683c0.222,0.27,0.334,0.59,0.334,0.962C205.196,22.943,205.046,23.288,204.746,23.59   M211.574,31.62c0.18,0.187,0.403,0.335,0.67,0.444c0.266,0.11,0.558,0.186,0.876,0.228c0.317,0.043,0.606,0.064,0.863,0.064  c0.687,0,1.276-0.11,1.765-0.33c0.49-0.22,0.734-0.583,0.734-1.09c0-0.32-0.08-0.607-0.244-0.86  c-0.164-0.254-0.383-0.47-0.657-0.646c-0.274-0.177-0.58-0.313-0.914-0.406c-0.335-0.092-0.666-0.14-0.992-0.14  c-0.31,0-0.61,0.056-0.902,0.166c-0.292,0.11-0.545,0.257-0.76,0.443s-0.386,0.4-0.515,0.646c-0.13,0.244-0.194,0.493-0.194,0.746  C211.304,31.189,211.394,31.435,211.574,31.62 M219.717,33.977c-0.473,0.405-1.146,0.608-2.023,0.608  c-0.24,0-0.455-0.008-0.644-0.025c-0.19-0.017-0.396-0.042-0.62-0.076c-0.326-0.034-0.7-0.076-1.12-0.127  c-0.42-0.05-0.906-0.076-1.456-0.076c-0.257,0-0.532,0.022-0.824,0.064c-0.293,0.043-0.563,0.12-0.812,0.228  c-0.25,0.11-0.455,0.258-0.618,0.444c-0.164,0.185-0.245,0.422-0.245,0.71c0,0.303,0.086,0.573,0.258,0.81  c0.17,0.236,0.395,0.434,0.67,0.595c0.274,0.162,0.566,0.284,0.876,0.368c0.308,0.085,0.608,0.127,0.9,0.127  c0.344,0,0.645-0.042,0.902-0.127c0.258-0.084,0.507-0.168,0.747-0.253c0.257-0.1,0.515-0.194,0.772-0.28  c0.258-0.083,0.524-0.125,0.8-0.125c0.446,0,0.76,0.11,0.94,0.33c0.18,0.22,0.27,0.54,0.27,0.962c0,0.152-0.077,0.342-0.232,0.57  c-0.154,0.228-0.404,0.452-0.747,0.67c-0.344,0.22-0.79,0.406-1.34,0.558s-1.21,0.228-1.984,0.228h-0.052  c-0.894,0-1.76-0.168-2.603-0.506c-0.842-0.338-1.584-0.8-2.228-1.38c-0.645-0.584-1.164-1.263-1.56-2.04  c-0.395-0.777-0.592-1.605-0.592-2.483v-0.052c0-1.114,0.18-2.106,0.54-2.976c0.362-0.87,0.873-1.596,1.534-2.18  c0.66-0.582,1.446-1.025,2.357-1.33c0.91-0.303,1.923-0.455,3.04-0.455c0.773,0,1.507,0.135,2.203,0.405s1.31,0.655,1.843,1.153  c0.532,0.498,0.957,1.09,1.275,1.773c0.318,0.684,0.477,1.44,0.477,2.268c0,0.675-0.237,1.216-0.71,1.62 M234.183,37.017  c0,0.355-0.022,0.718-0.064,1.09c-0.044,0.37-0.13,0.7-0.26,0.987c-0.128,0.288-0.304,0.524-0.527,0.71  c-0.224,0.186-0.507,0.278-0.85,0.278c-0.533,0-0.94-0.206-1.224-0.62c-0.285-0.414-0.426-1.018-0.426-1.812v-3.116  c0-1.08-0.108-1.942-0.322-2.584c-0.215-0.64-0.503-1.13-0.864-1.47c-0.36-0.337-0.77-0.56-1.223-0.67  c-0.456-0.11-0.924-0.165-1.405-0.165c-0.43,0-0.816,0.097-1.16,0.292c-0.343,0.194-0.63,0.46-0.863,0.797  c-0.23,0.338-0.412,0.735-0.54,1.19c-0.13,0.457-0.194,0.947-0.194,1.47v3.927c0,0.846-0.137,1.517-0.412,2.015  c-0.274,0.498-0.738,0.747-1.39,0.747c-0.43,0-0.808-0.215-1.134-0.646c-0.327-0.43-0.49-1-0.49-1.71v-7.498  c0-0.827,0.146-1.533,0.438-2.115c0.292-0.583,0.74-0.875,1.34-0.875c0.464,0,0.803,0.022,1.018,0.064  c0.214,0.042,0.408,0.097,0.58,0.164h-0.026c0.137,0.068,0.36,0.102,0.67,0.102c0.326,0,0.588-0.038,0.786-0.114  c0.197-0.076,0.39-0.156,0.58-0.24c0.274-0.136,0.613-0.267,1.017-0.393c0.403-0.126,1.008-0.19,1.815-0.19  c0.67,0,1.315,0.093,1.933,0.28c0.62,0.185,1.164,0.498,1.636,0.936c0.473,0.44,0.85,1.04,1.134,1.8  c0.283,0.76,0.425,1.705,0.425,2.836v4.535L234.183,37.017z M241.243,26.669c0.36,0.074,0.712,0.188,1.056,0.34  c0.343,0.152,0.64,0.338,0.888,0.557c0.25,0.22,0.374,0.474,0.374,0.76c0,0.456-0.155,0.765-0.464,0.925  c-0.31,0.16-0.67,0.242-1.082,0.242c-0.31,0-0.602-0.035-0.876-0.102v0.024c-0.138-0.032-0.27-0.058-0.4-0.076  c-0.128-0.015-0.262-0.024-0.4-0.024c-0.068,0-0.175,0.017-0.32,0.05c-0.147,0.035-0.29,0.088-0.426,0.166  c-0.138,0.076-0.262,0.177-0.374,0.302c-0.112,0.128-0.167,0.293-0.167,0.494c0,0.288,0.064,0.53,0.193,0.724  c0.13,0.194,0.3,0.363,0.515,0.506c0.216,0.143,0.46,0.265,0.736,0.366c0.274,0.102,0.558,0.203,0.85,0.306h-0.026  c0.464,0.15,0.932,0.325,1.405,0.52c0.472,0.193,0.897,0.45,1.275,0.77c0.378,0.322,0.683,0.73,0.915,1.23  c0.23,0.498,0.347,1.127,0.347,1.886c0,0.49-0.116,0.963-0.347,1.42c-0.232,0.456-0.59,0.858-1.07,1.204  c-0.48,0.346-1.078,0.623-1.79,0.834c-0.713,0.212-1.543,0.317-2.487,0.317c-0.326,0.002-0.695-0.032-1.108-0.1  c-0.412-0.068-0.803-0.17-1.172-0.303c-0.37-0.136-0.683-0.317-0.94-0.545c-0.258-0.23-0.387-0.503-0.387-0.824  c0-0.472,0.138-0.78,0.413-0.924c0.275-0.143,0.584-0.215,0.928-0.215c0.19-0.002,0.365,0.023,0.53,0.075  c0.162,0.05,0.338,0.1,0.527,0.15c0.19,0.087,0.4,0.154,0.63,0.203c0.233,0.052,0.47,0.077,0.71,0.077c0.31,0,0.57-0.047,0.786-0.14  c0.214-0.093,0.39-0.206,0.528-0.342c0.138-0.135,0.237-0.283,0.297-0.443s0.09-0.307,0.09-0.444c0-0.303-0.068-0.556-0.206-0.76  c-0.136-0.2-0.32-0.38-0.553-0.53c-0.23-0.153-0.498-0.287-0.798-0.406c-0.302-0.118-0.616-0.228-0.942-0.33  c-0.463-0.15-0.927-0.316-1.39-0.493c-0.465-0.178-0.877-0.414-1.238-0.71c-0.36-0.295-0.653-0.662-0.876-1.102  c-0.223-0.44-0.335-0.997-0.335-1.67c0-0.73,0.167-1.35,0.5-1.864c0.336-0.514,0.762-0.936,1.277-1.265  c0.515-0.33,1.082-0.57,1.7-0.723c0.62-0.15,1.22-0.227,1.804-0.227c0.242,0,0.542,0.038,0.903,0.114 M249.913,31.62  c0.18,0.187,0.403,0.335,0.67,0.444c0.266,0.11,0.558,0.186,0.876,0.228c0.316,0.043,0.605,0.064,0.862,0.064  c0.687,0,1.276-0.11,1.765-0.33c0.49-0.22,0.734-0.583,0.734-1.09c0-0.32-0.08-0.607-0.243-0.86  c-0.164-0.254-0.383-0.47-0.657-0.646c-0.275-0.177-0.58-0.313-0.915-0.406c-0.335-0.092-0.666-0.14-0.992-0.14  c-0.31,0-0.61,0.056-0.902,0.166c-0.29,0.11-0.544,0.257-0.76,0.443c-0.214,0.186-0.385,0.4-0.514,0.646  c-0.13,0.244-0.194,0.493-0.194,0.746C249.643,31.189,249.733,31.435,249.913,31.62 M258.056,33.977  c-0.473,0.405-1.146,0.608-2.023,0.608c-0.24,0-0.455-0.008-0.644-0.025c-0.19-0.017-0.395-0.042-0.618-0.076  c-0.327-0.034-0.7-0.076-1.12-0.127c-0.422-0.05-0.907-0.076-1.457-0.076c-0.257,0-0.532,0.022-0.824,0.064  c-0.294,0.043-0.564,0.12-0.813,0.228c-0.25,0.11-0.455,0.258-0.618,0.444c-0.165,0.185-0.246,0.422-0.246,0.71  c0,0.303,0.086,0.573,0.258,0.81c0.17,0.236,0.395,0.434,0.67,0.595c0.274,0.162,0.566,0.284,0.876,0.368  c0.31,0.085,0.61,0.127,0.9,0.127c0.345,0,0.646-0.042,0.903-0.127c0.26-0.084,0.508-0.168,0.748-0.253  c0.258-0.1,0.516-0.194,0.773-0.28c0.26-0.083,0.525-0.125,0.8-0.125c0.447,0,0.76,0.11,0.94,0.33s0.27,0.54,0.27,0.962  c0,0.152-0.076,0.342-0.23,0.57c-0.155,0.228-0.405,0.452-0.748,0.67c-0.344,0.22-0.79,0.406-1.34,0.558s-1.21,0.228-1.984,0.228  h-0.05c-0.895,0-1.762-0.168-2.604-0.506c-0.842-0.338-1.584-0.8-2.228-1.38c-0.645-0.584-1.164-1.263-1.56-2.04  c-0.395-0.777-0.592-1.605-0.592-2.483v-0.052c0-1.114,0.18-2.106,0.54-2.976c0.362-0.87,0.873-1.596,1.534-2.18  c0.66-0.582,1.447-1.025,2.358-1.33c0.91-0.303,1.923-0.455,3.04-0.455c0.773,0,1.507,0.135,2.203,0.405  c0.695,0.27,1.31,0.655,1.842,1.153s0.957,1.09,1.275,1.773c0.318,0.684,0.477,1.44,0.477,2.268c0,0.675-0.237,1.216-0.71,1.62   M277.11,23.502c-0.19,0.212-0.435,0.372-0.735,0.482s-0.645,0.18-1.03,0.215c-0.387,0.033-0.77,0.05-1.148,0.05h-2.24  c-0.345,0-0.693,0.02-1.045,0.063c-0.352,0.042-0.67,0.14-0.953,0.29c-0.285,0.153-0.517,0.385-0.697,0.698  c-0.18,0.314-0.27,0.74-0.27,1.28c0,0.338,0.025,0.693,0.077,1.064c0.05,0.372,0.197,0.676,0.438,0.912  c0.24,0.237,0.567,0.414,0.98,0.532c0.41,0.12,0.995,0.177,1.75,0.177h1.573c0.378,0,0.752,0.022,1.122,0.064  c0.37,0.04,0.695,0.117,0.98,0.227c0.282,0.11,0.51,0.266,0.682,0.468c0.17,0.203,0.257,0.465,0.257,0.786  c0,0.34-0.093,0.613-0.282,0.824c-0.19,0.212-0.43,0.376-0.722,0.494s-0.614,0.194-0.966,0.228s-0.692,0.05-1.018,0.05h-0.67  c-0.927,0-1.687,0.026-2.28,0.077c-0.593,0.05-1.01,0.194-1.25,0.43c-0.24,0.237-0.416,0.57-0.528,1  c-0.112,0.432-0.167,1.036-0.167,1.812v1.52c0,0.98-0.142,1.702-0.425,2.166c-0.284,0.466-0.752,0.698-1.405,0.698  c-0.498,0-0.914-0.22-1.25-0.66c-0.334-0.438-0.502-1.164-0.502-2.178V24.148c0-0.642,0.065-1.16,0.193-1.558  c0.13-0.396,0.327-0.71,0.593-0.937c0.267-0.228,0.602-0.38,1.006-0.456c0.404-0.076,0.872-0.114,1.404-0.114h5.514  c0.533,0,1,0.02,1.405,0.063c0.402,0.042,0.746,0.12,1.03,0.228c0.283,0.11,0.497,0.27,0.643,0.48  c0.146,0.213,0.22,0.487,0.22,0.825C277.394,23.016,277.299,23.289,277.11,23.502 M285.87,27.264  c0.29,0.253,0.437,0.566,0.437,0.937c0,0.34-0.056,0.605-0.168,0.8c-0.112,0.194-0.263,0.346-0.45,0.455  c-0.19,0.11-0.41,0.2-0.66,0.266c-0.248,0.07-0.51,0.128-0.784,0.178c-0.5,0.102-0.89,0.224-1.173,0.368s-0.58,0.367-0.89,0.67  c-0.12,0.12-0.24,0.263-0.36,0.432c-0.12,0.17-0.227,0.38-0.32,0.633c-0.096,0.254-0.173,0.563-0.233,0.926s-0.09,0.79-0.09,1.28  v3.115c0,0.356-0.035,0.698-0.104,1.027c-0.068,0.33-0.17,0.62-0.31,0.874c-0.136,0.254-0.312,0.457-0.527,0.61  c-0.216,0.15-0.47,0.227-0.76,0.227c-0.31,0-0.572-0.076-0.787-0.228c-0.215-0.153-0.395-0.35-0.54-0.596  c-0.147-0.245-0.255-0.51-0.323-0.798c-0.07-0.287-0.103-0.574-0.103-0.862V30c0-0.27,0.017-0.57,0.05-0.9  c0.036-0.33,0.126-0.633,0.272-0.912c0.145-0.278,0.36-0.51,0.643-0.696c0.283-0.186,0.674-0.28,1.172-0.28  c0.223,0,0.426,0.023,0.606,0.064c0.18,0.043,0.366,0.08,0.555,0.115c0.137,0.035,0.266,0.064,0.386,0.09  c0.12,0.025,0.276,0.037,0.465,0.037c0.292,0,0.528-0.03,0.71-0.09c0.18-0.057,0.355-0.13,0.527-0.214  c0.19-0.084,0.395-0.16,0.618-0.228c0.223-0.067,0.498-0.1,0.825-0.1c0.584,0,1.022,0.126,1.314,0.38 M289.708,34.876  c0.172,0.448,0.416,0.845,0.734,1.19c0.318,0.347,0.7,0.63,1.147,0.85c0.446,0.22,0.952,0.33,1.52,0.33  c0.463,0,0.918-0.094,1.365-0.28c0.446-0.186,0.84-0.443,1.185-0.773c0.344-0.33,0.618-0.722,0.825-1.178  c0.206-0.455,0.31-0.954,0.31-1.494c0-0.573-0.1-1.097-0.297-1.57c-0.198-0.472-0.464-0.878-0.8-1.216  c-0.334-0.337-0.725-0.6-1.172-0.785c-0.447-0.187-0.92-0.28-1.417-0.28c-0.516,0-0.997,0.102-1.444,0.304  c-0.447,0.203-0.833,0.48-1.16,0.836c-0.326,0.355-0.583,0.764-0.772,1.23c-0.19,0.464-0.283,0.957-0.283,1.48  C289.449,33.977,289.535,34.43,289.708,34.876 M299.82,36.092c-0.334,0.82-0.815,1.545-1.442,2.18  c-0.627,0.632-1.387,1.14-2.28,1.52s-1.89,0.57-2.99,0.57c-0.96,0-1.876-0.158-2.743-0.47s-1.628-0.764-2.28-1.355  c-0.653-0.59-1.173-1.31-1.56-2.154c-0.386-0.844-0.58-1.798-0.58-2.862c0-1.08,0.203-2.047,0.607-2.9  c0.403-0.852,0.94-1.58,1.61-2.18c0.67-0.598,1.434-1.054,2.293-1.366c0.86-0.313,1.744-0.47,2.654-0.47  c0.927,0,1.824,0.153,2.692,0.457c0.867,0.305,1.636,0.752,2.306,1.344c0.67,0.59,1.206,1.313,1.61,2.166  c0.404,0.852,0.606,1.836,0.606,2.95c0,0.896-0.168,1.753-0.503,2.572 M314.34,37.017c0,0.355-0.022,0.718-0.064,1.09  c-0.043,0.37-0.13,0.7-0.258,0.987c-0.13,0.288-0.305,0.524-0.528,0.71c-0.224,0.186-0.507,0.278-0.85,0.278  c-0.533,0-0.94-0.206-1.224-0.62c-0.284-0.414-0.426-1.018-0.426-1.812v-3.116c0-1.08-0.107-1.942-0.322-2.584  c-0.215-0.64-0.502-1.13-0.863-1.47c-0.36-0.337-0.77-0.56-1.224-0.67s-0.922-0.165-1.403-0.165c-0.43,0-0.816,0.097-1.16,0.292  c-0.343,0.194-0.63,0.46-0.863,0.797c-0.232,0.338-0.412,0.735-0.54,1.19c-0.13,0.457-0.194,0.947-0.194,1.47v3.927  c0,0.846-0.138,1.517-0.412,2.015c-0.275,0.498-0.74,0.747-1.392,0.747c-0.43,0-0.807-0.215-1.133-0.646  c-0.327-0.43-0.49-1-0.49-1.71v-7.498c0-0.827,0.146-1.533,0.438-2.115c0.293-0.583,0.74-0.875,1.34-0.875  c0.465,0,0.804,0.022,1.02,0.064c0.213,0.042,0.406,0.097,0.578,0.164h-0.025c0.137,0.068,0.36,0.102,0.67,0.102  c0.326,0,0.588-0.038,0.786-0.114c0.196-0.076,0.39-0.156,0.578-0.24c0.275-0.136,0.614-0.267,1.018-0.393  c0.403-0.126,1.01-0.19,1.816-0.19c0.67,0,1.315,0.093,1.933,0.28c0.618,0.185,1.164,0.498,1.636,0.936  c0.473,0.44,0.85,1.04,1.135,1.8c0.283,0.76,0.425,1.705,0.425,2.836v4.535L314.34,37.017z M321.838,26.63l0.567,0.304l-0.026-0.025  c0.325,0.168,0.566,0.324,0.72,0.467c0.155,0.144,0.232,0.42,0.232,0.824c0,0.355-0.116,0.63-0.347,0.824  c-0.232,0.194-0.52,0.384-0.864,0.57c-0.17,0.1-0.35,0.207-0.54,0.317c-0.19,0.11-0.36,0.25-0.515,0.42  c-0.155,0.168-0.28,0.366-0.374,0.594c-0.093,0.228-0.14,0.503-0.14,0.823v3.294c0,0.39,0.064,0.74,0.193,1.052  c0.13,0.312,0.365,0.638,0.708,0.976c0.173,0.17,0.396,0.32,0.67,0.455c0.327,0.186,0.602,0.372,0.826,0.558  c0.223,0.186,0.335,0.482,0.335,0.887c0,0.254-0.06,0.47-0.18,0.646c-0.12,0.177-0.28,0.32-0.476,0.43  c-0.198,0.11-0.42,0.19-0.67,0.24c-0.25,0.052-0.503,0.078-0.76,0.078c-0.86,0-1.555-0.148-2.087-0.443  c-0.533-0.295-0.954-0.692-1.263-1.19c-0.31-0.498-0.52-1.065-0.63-1.698c-0.113-0.634-0.17-1.297-0.17-1.99v-3.267  c0-0.27-0.033-0.51-0.102-0.722c-0.068-0.21-0.16-0.4-0.27-0.57c-0.112-0.168-0.232-0.316-0.36-0.442l-0.375-0.368  c-0.24-0.236-0.45-0.456-0.63-0.66c-0.18-0.2-0.27-0.48-0.27-0.835c0-0.388,0.123-0.726,0.372-1.013  c0.248-0.287,0.52-0.55,0.81-0.785l-0.025,0.025c0.07-0.067,0.133-0.127,0.193-0.177s0.116-0.102,0.168-0.152  c0.12-0.118,0.22-0.27,0.296-0.456l0.245-0.583c0.154-0.422,0.34-0.794,0.554-1.115c0.216-0.32,0.598-0.482,1.147-0.482  c0.275,0,0.503,0.042,0.683,0.127c0.18,0.084,0.335,0.198,0.464,0.342c0.13,0.143,0.236,0.308,0.322,0.494  c0.086,0.187,0.172,0.38,0.258,0.583c0.086,0.186,0.17,0.377,0.258,0.57c0.085,0.195,0.206,0.368,0.36,0.52  c0.24,0.253,0.472,0.44,0.696,0.557 M327.803,31.62c0.18,0.187,0.403,0.335,0.67,0.444c0.266,0.11,0.558,0.186,0.876,0.228  c0.316,0.043,0.604,0.064,0.862,0.064c0.687,0,1.276-0.11,1.765-0.33c0.49-0.22,0.734-0.583,0.734-1.09  c0-0.32-0.08-0.607-0.243-0.86c-0.164-0.254-0.383-0.47-0.657-0.646c-0.275-0.177-0.58-0.313-0.915-0.406  c-0.335-0.092-0.666-0.14-0.992-0.14c-0.31,0-0.61,0.056-0.902,0.166c-0.29,0.11-0.544,0.257-0.76,0.443  c-0.214,0.186-0.385,0.4-0.514,0.646c-0.13,0.244-0.194,0.493-0.194,0.746C327.533,31.189,327.623,31.435,327.803,31.62   M335.946,33.977c-0.473,0.405-1.146,0.608-2.023,0.608c-0.24,0-0.455-0.008-0.644-0.025c-0.19-0.017-0.395-0.042-0.618-0.076  c-0.327-0.034-0.7-0.076-1.12-0.127c-0.422-0.05-0.907-0.076-1.457-0.076c-0.257,0-0.532,0.022-0.824,0.064  c-0.293,0.043-0.564,0.12-0.813,0.228c-0.25,0.11-0.455,0.258-0.618,0.444c-0.165,0.185-0.246,0.422-0.246,0.71  c0,0.303,0.086,0.573,0.258,0.81c0.17,0.236,0.395,0.434,0.67,0.595c0.274,0.162,0.566,0.284,0.876,0.368  c0.31,0.085,0.61,0.127,0.9,0.127c0.345,0,0.646-0.042,0.903-0.127c0.26-0.084,0.508-0.168,0.748-0.253  c0.258-0.1,0.516-0.194,0.773-0.28c0.26-0.083,0.525-0.125,0.8-0.125c0.447,0,0.76,0.11,0.94,0.33s0.27,0.54,0.27,0.962  c0,0.152-0.076,0.342-0.23,0.57c-0.155,0.228-0.405,0.452-0.748,0.67c-0.344,0.22-0.79,0.406-1.34,0.558s-1.21,0.228-1.984,0.228  h-0.05c-0.895,0-1.762-0.168-2.604-0.506s-1.584-0.8-2.228-1.38c-0.645-0.584-1.164-1.263-1.56-2.04  c-0.395-0.777-0.592-1.605-0.592-2.483v-0.052c0-1.114,0.18-2.106,0.54-2.976c0.362-0.87,0.873-1.596,1.534-2.18  c0.66-0.582,1.447-1.025,2.358-1.33c0.91-0.303,1.923-0.455,3.04-0.455c0.773,0,1.507,0.135,2.203,0.405  c0.695,0.27,1.31,0.655,1.842,1.153s0.957,1.09,1.275,1.773c0.318,0.684,0.477,1.44,0.477,2.268c0,0.675-0.237,1.216-0.71,1.62   M345.697,27.264c0.292,0.253,0.438,0.566,0.438,0.937c0,0.34-0.056,0.605-0.168,0.8c-0.11,0.194-0.262,0.346-0.45,0.455  c-0.19,0.11-0.41,0.2-0.658,0.266c-0.25,0.07-0.512,0.128-0.786,0.178c-0.5,0.102-0.89,0.224-1.173,0.368  c-0.282,0.144-0.578,0.367-0.888,0.67c-0.12,0.12-0.24,0.263-0.36,0.432c-0.12,0.17-0.228,0.38-0.322,0.633  c-0.095,0.254-0.172,0.563-0.232,0.926s-0.09,0.79-0.09,1.28v3.115c0,0.356-0.035,0.698-0.104,1.027  c-0.068,0.33-0.17,0.62-0.31,0.874c-0.136,0.254-0.312,0.457-0.527,0.61c-0.215,0.15-0.468,0.227-0.76,0.227  c-0.31,0-0.57-0.076-0.786-0.228c-0.214-0.153-0.394-0.35-0.54-0.596c-0.146-0.245-0.254-0.51-0.322-0.798  c-0.07-0.287-0.103-0.574-0.103-0.862V30c0-0.27,0.017-0.57,0.05-0.9c0.036-0.33,0.126-0.633,0.272-0.912  c0.146-0.278,0.36-0.51,0.644-0.696c0.285-0.186,0.675-0.28,1.173-0.28c0.223,0,0.426,0.023,0.606,0.064  c0.18,0.043,0.364,0.08,0.553,0.115c0.137,0.035,0.266,0.064,0.386,0.09c0.12,0.025,0.274,0.037,0.463,0.037  c0.292,0,0.528-0.03,0.71-0.09c0.18-0.057,0.355-0.13,0.527-0.214c0.19-0.084,0.395-0.16,0.618-0.228  c0.223-0.067,0.498-0.1,0.825-0.1c0.584,0,1.022,0.126,1.314,0.38 M350.502,31.62c0.18,0.187,0.403,0.335,0.67,0.444  c0.266,0.11,0.558,0.186,0.876,0.228c0.317,0.043,0.605,0.064,0.863,0.064c0.688,0,1.277-0.11,1.766-0.33  c0.49-0.22,0.734-0.583,0.734-1.09c0-0.32-0.08-0.607-0.244-0.86c-0.164-0.254-0.383-0.47-0.657-0.646  c-0.276-0.177-0.58-0.313-0.916-0.406c-0.335-0.092-0.666-0.14-0.992-0.14c-0.31,0-0.61,0.056-0.902,0.166  c-0.292,0.11-0.546,0.257-0.76,0.443c-0.215,0.186-0.386,0.4-0.515,0.646c-0.13,0.244-0.194,0.493-0.194,0.746  c0,0.304,0.092,0.55,0.272,0.735 M358.645,33.977c-0.473,0.405-1.146,0.608-2.023,0.608c-0.24,0-0.454-0.008-0.643-0.025  c-0.19-0.017-0.395-0.042-0.618-0.076c-0.328-0.034-0.7-0.076-1.122-0.127c-0.42-0.05-0.906-0.076-1.456-0.076  c-0.257,0-0.532,0.022-0.824,0.064c-0.293,0.043-0.563,0.12-0.812,0.228c-0.25,0.11-0.455,0.258-0.618,0.444  c-0.164,0.185-0.245,0.422-0.245,0.71c0,0.303,0.086,0.573,0.258,0.81c0.172,0.236,0.396,0.434,0.67,0.595  c0.275,0.162,0.567,0.284,0.877,0.368c0.31,0.085,0.61,0.127,0.9,0.127c0.345,0,0.646-0.042,0.903-0.127  c0.258-0.084,0.507-0.168,0.747-0.253c0.258-0.1,0.516-0.194,0.773-0.28c0.258-0.083,0.524-0.125,0.8-0.125  c0.446,0,0.76,0.11,0.94,0.33s0.27,0.54,0.27,0.962c0,0.152-0.077,0.342-0.232,0.57c-0.154,0.228-0.404,0.452-0.747,0.67  c-0.343,0.22-0.79,0.406-1.34,0.558s-1.21,0.228-1.983,0.228h-0.05c-0.895,0-1.762-0.168-2.604-0.506s-1.584-0.8-2.228-1.38  c-0.645-0.584-1.164-1.263-1.56-2.04c-0.395-0.777-0.592-1.605-0.592-2.483v-0.052c0-1.114,0.18-2.106,0.54-2.976  c0.362-0.87,0.873-1.596,1.534-2.18c0.66-0.582,1.447-1.025,2.358-1.33c0.91-0.303,1.923-0.455,3.04-0.455  c0.773,0,1.507,0.135,2.203,0.405s1.31,0.655,1.842,1.153c0.533,0.498,0.958,1.09,1.276,1.773c0.318,0.684,0.477,1.44,0.477,2.268  c0,0.675-0.237,1.216-0.71,1.62 M365.433,26.669c0.362,0.074,0.713,0.188,1.057,0.34s0.64,0.338,0.888,0.557  c0.25,0.22,0.375,0.474,0.375,0.76c0,0.456-0.155,0.765-0.464,0.925c-0.31,0.16-0.672,0.242-1.084,0.242  c-0.31,0-0.602-0.035-0.876-0.102v0.024c-0.137-0.032-0.27-0.058-0.398-0.076c-0.13-0.015-0.264-0.024-0.4-0.024  c-0.07,0-0.176,0.017-0.322,0.05c-0.147,0.035-0.288,0.088-0.425,0.166c-0.14,0.076-0.263,0.177-0.375,0.302  c-0.112,0.128-0.167,0.293-0.167,0.494c0,0.288,0.065,0.53,0.194,0.724c0.128,0.194,0.3,0.363,0.514,0.506  c0.216,0.143,0.462,0.265,0.737,0.366c0.274,0.102,0.558,0.203,0.85,0.306h-0.026c0.464,0.15,0.933,0.325,1.406,0.52  c0.47,0.193,0.897,0.45,1.274,0.77c0.377,0.322,0.683,0.73,0.916,1.23c0.23,0.498,0.346,1.127,0.346,1.886  c0,0.49-0.115,0.963-0.346,1.42c-0.233,0.456-0.59,0.858-1.07,1.204c-0.48,0.346-1.08,0.623-1.79,0.834  c-0.713,0.212-1.542,0.317-2.487,0.317c-0.327,0.002-0.697-0.032-1.11-0.1c-0.41-0.068-0.802-0.17-1.17-0.303  c-0.372-0.136-0.685-0.317-0.942-0.545c-0.257-0.23-0.387-0.503-0.387-0.824c0.002-0.472,0.14-0.78,0.413-0.924  c0.276-0.143,0.584-0.215,0.928-0.215c0.19-0.002,0.365,0.023,0.53,0.075c0.163,0.05,0.34,0.1,0.528,0.15  c0.188,0.087,0.4,0.154,0.632,0.203c0.23,0.052,0.466,0.077,0.707,0.077c0.31,0,0.572-0.047,0.786-0.14  c0.214-0.093,0.39-0.206,0.53-0.342c0.136-0.135,0.235-0.283,0.295-0.443c0.06-0.16,0.09-0.307,0.09-0.444  c0-0.303-0.07-0.556-0.207-0.76c-0.135-0.2-0.32-0.38-0.55-0.53c-0.233-0.153-0.5-0.287-0.8-0.406c-0.3-0.118-0.615-0.228-0.94-0.33  c-0.464-0.15-0.928-0.316-1.392-0.493c-0.464-0.178-0.876-0.414-1.237-0.71c-0.36-0.295-0.652-0.662-0.875-1.102  c-0.224-0.44-0.335-0.997-0.335-1.67c0-0.73,0.166-1.35,0.502-1.864c0.334-0.514,0.76-0.936,1.275-1.265  c0.516-0.33,1.083-0.57,1.702-0.723c0.616-0.15,1.217-0.227,1.8-0.227c0.243,0,0.543,0.038,0.904,0.114"/>
</svg>